<svg width="80" height="80" viewBox="0 0 80 80" fill="none" xmlns="http://www.w3.org/2000/svg">
<path d="M13.9565 67.1509L13.9563 67.1508C11.4081 65.0706 9.55952 61.2848 8.3645 56.6252C7.16969 51.9664 6.6291 46.4376 6.69422 40.8757C6.75935 35.3138 7.43017 29.7196 8.65765 24.9302C9.88531 20.1401 11.6691 16.1577 13.9581 13.8166C16.2471 11.4757 20.0729 9.71806 24.6707 8.54584C29.2678 7.37377 34.6339 6.78761 40.0003 6.78761C45.3668 6.78761 50.7329 7.37377 55.33 8.54584C59.9277 9.71806 63.7536 11.4757 66.0425 13.8166C68.3316 16.1577 70.1153 20.1401 71.343 24.9302C72.5705 29.7196 73.2413 35.3138 73.3064 40.8757C73.3716 46.4377 72.831 51.9665 71.6361 56.6253C70.4411 61.2848 68.5925 65.0707 66.0443 67.1508C63.4945 69.2323 59.5896 70.7948 55.0081 71.8368C50.427 72.8787 45.1715 73.3997 39.9222 73.3997C34.6728 73.3997 29.4304 72.8787 24.8754 71.8368C20.3199 70.7948 16.4542 69.2323 13.9565 67.1509Z" fill="#8FB131" stroke="#1F894B" stroke-width="0.0439727"/>
<path opacity="0.16" d="M40.2086 52.5755C31.0362 59.8717 20.8215 63.6241 11.2323 63.8325C4.14445 51.7416 5.60376 22.3484 13.9423 13.8014C21.447 6.08831 45.0033 4.62901 58.5535 9.42364C61.8888 23.1823 55.0096 40.6931 40.2086 52.5755Z" fill="#F3FAF3"/>
<path d="M38.1064 55.1283C36.2929 56.9418 33.3503 56.9418 31.5376 55.1283L21.3601 44.9508C19.5466 43.1382 19.5466 40.1956 21.3601 38.3829C23.1728 36.5694 26.1154 36.5694 27.9289 38.3829L33.9927 44.4458C34.4505 44.9027 35.1935 44.9027 35.6522 44.4458L52.0711 28.0269C53.8837 26.2134 56.8263 26.2134 58.6399 28.0269C59.5107 28.8978 60 30.0794 60 31.3108C60 32.5423 59.5107 33.7239 58.6399 34.5948L38.1064 55.1283Z" fill="#FAFAF5"/>
</svg>
